{"accessors":[{"bufferView":1,"componentType":5126,"count":1678,"max":[1,1,0.16922999918460846],"min":[-1,-1.0012600421905518,0],"type":"VEC3"},{"bufferView":1,"byteOffset":20136,"componentType":5126,"count":1678,"max":[0.7689802050590515,0.5528614521026611,1],"min":[-0.7265961766242981,-0.5775216817855835,0.46970006823539734],"type":"VEC3"},{"bufferView":0,"componentType":5125,"count":2124,"max":[1677],"min":[0],"type":"SCALAR"},{"bufferView":1,"byteOffset":40272,"componentType":5126,"count":465,"max":[0.04966000095009804,0.429720014333725,0.5078999996185303],"min":[-0.9047600030899048,-0.8247100114822388,0.049139998853206635],"type":"VEC3"},{"bufferView":1,"byteOffset":45852,"componentType":5126,"count":465,"max":[0.8675374984741211,0.8450908660888672,0.9895834922790527],"min":[-0.8561882972717285,-0.9644413590431213,0.1703103482723236],"type":"VEC3"},{"bufferView":0,"byteOffset":8496,"componentType":5125,"count":465,"max":[464],"min":[0],"type":"SCALAR"},{"bufferView":1,"byteOffset":51432,"componentType":5126,"count":57,"max":[-0.1504400074481964,0.05201999843120575,0.6103900074958801],"min":[-0.6190500259399414,-0.6247000098228455,0.2947399914264679],"type":"VEC3"},{"bufferView":1,"byteOffset":52116,"componentType":5126,"count":57,"max":[0.8793063163757324,0.8236798644065857,0.8545458316802979],"min":[-0.7355007529258728,-0.7523185610771179,0.383078396320343],"type":"VEC3"},{"bufferView":0,"byteOffset":10356,"componentType":5125,"count":57,"max":[56],"min":[0],"type":"SCALAR"},{"bufferView":1,"byteOffset":52800,"componentType":5126,"count":1440,"max":[-0.34314000606536865,0.3929600119590759,0.7160400152206421],"min":[-0.5325199961662292,-0.2911800146102905,0.4040200114250183],"type":"VEC3"},{"bufferView":1,"byteOffset":70080,"componentType":5126,"count":1440,"max":[0.9826236367225647,0.9799508452415466,0.943525493144989],"min":[-0.9826236367225647,-0.9799508452415466,-0.943525493144989],"type":"VEC3"},{"bufferView":0,"byteOffset":10584,"componentType":5125,"count":1440,"max":[1439],"min":[0],"type":"SCALAR"},{"bufferView":1,"byteOffset":87360,"componentType":5126,"count":1230,"max":[0.579259991645813,-0.20920999348163605,0.08696000277996063],"min":[0.3799999952316284,-0.644569993019104,0.025210000574588776],"type":"VEC3"},{"bufferView":1,"byteOffset":102120,"componentType":5126,"count":1230,"max":[0.9920772314071655,0.9911431074142456,0.9630815982818604],"min":[-0.9920772314071655,-0.9911431074142456,-0.9961419105529785],"type":"VEC3"},{"bufferView":0,"byteOffset":16344,"componentType":5125,"count":1230,"max":[1229],"min":[0],"type":"SCALAR"},{"bufferView":1,"byteOffset":116880,"componentType":5126,"count":323,"max":[0.5731099843978882,-0.2161100059747696,0.06485000252723694],"min":[0.3928700089454651,-0.6410099864006042,0.0038900000508874655],"type":"VEC3"},{"bufferView":1,"byteOffset":120756,"componentType":5126,"count":323,"max":[0.9985688328742981,0.9831810593605042,1],"min":[-0.9922394156455994,-0.9995097517967224,-1],"type":"VEC3"},{"bufferView":0,"byteOffset":21264,"componentType":5125,"count":504,"max":[322],"min":[0],"type":"SCALAR"},{"bufferView":1,"byteOffset":124632,"componentType":5126,"count":240,"max":[0.48662999272346497,-0.1250700056552887,0.04766000062227249],"min":[0.4650999903678894,-0.14751000702381134,0.025210000574588776],"type":"VEC3"},{"bufferView":1,"byteOffset":127512,"componentType":5126,"count":240,"max":[0.9917309284210205,0.9512898921966553,0.9435245990753174],"min":[-0.9917309284210205,-0.9512898921966553,-0.9435245990753174],"type":"VEC3"},{"bufferView":0,"byteOffset":23280,"componentType":5125,"count":240,"max":[239],"min":[0],"type":"SCALAR"},{"bufferView":1,"byteOffset":130392,"componentType":5126,"count":42,"max":[0.48017001152038574,-0.1317799985408783,0.03585999831557274],"min":[0.4722900092601776,-0.13956999778747559,0.0038900000508874655],"type":"VEC3"},{"bufferView":1,"byteOffset":130896,"componentType":5126,"count":42,"max":[0.9865731596946716,0.9261715412139893,1],"min":[-0.9584168791770935,-0.9975058436393738,-1],"type":"VEC3"},{"bufferView":0,"byteOffset":24240,"componentType":5125,"count":72,"max":[41],"min":[0],"type":"SCALAR"},{"bufferView":1,"byteOffset":131400,"componentType":5126,"count":240,"max":[0.47672000527381897,-0.23497000336647034,0.044849999248981476],"min":[0.45781999826431274,-0.25402000546455383,0.025629999116063118],"type":"VEC3"},{"bufferView":1,"byteOffset":134280,"componentType":5126,"count":240,"max":[0.9833768606185913,0.9757584929466248,0.9435232877731323],"min":[-0.9833768606185913,-0.9757584929466248,-0.9435232877731323],"type":"VEC3"},{"bufferView":0,"byteOffset":24528,"componentType":5125,"count":240,"max":[239],"min":[0],"type":"SCALAR"},{"bufferView":1,"byteOffset":137160,"componentType":5126,"count":42,"max":[0.4699999988079071,-0.24121999740600586,0.03474999964237213],"min":[0.4632999897003174,-0.24796000123023987,0.007379999849945307],"type":"VEC3"},{"bufferView":1,"byteOffset":137664,"componentType":5126,"count":42,"max":[0.9956724047660828,0.9512396454811096,1],"min":[-0.9350345730781555,-0.9901782274246216,-1],"type":"VEC3"},{"bufferView":0,"byteOffset":25488,"componentType":5125,"count":72,"max":[41],"min":[0],"type":"SCALAR"},{"bufferView":1,"byteOffset":138168,"componentType":5126,"count":240,"max":[0.41418999433517456,-0.5726900100708008,0.05471999943256378],"min":[0.38784000277519226,-0.600380003452301,0.02703000046312809],"type":"VEC3"},{"bufferView":1,"byteOffset":141048,"componentType":5126,"count":240,"max":[0.9920763969421387,0.9439072012901306,0.9435240626335144],"min":[-0.9920763969421387,-0.9439072012901306,-0.9435240626335144],"type":"VEC3"},{"bufferView":0,"byteOffset":25776,"componentType":5125,"count":240,"max":[239],"min":[0],"type":"SCALAR"},{"bufferView":1,"byteOffset":143928,"componentType":5126,"count":42,"max":[0.4058600068092346,-0.5823299884796143,0.04016999900341034],"min":[0.3961600065231323,-0.5919899940490723,0.0007300000288523734],"type":"VEC3"},{"bufferView":1,"byteOffset":144432,"componentType":5126,"count":42,"max":[0.950201153755188,0.9362189769744873,1],"min":[-0.9906321167945862,-0.995371401309967,-1],"type":"VEC3"},{"bufferView":0,"byteOffset":26736,"componentType":5125,"count":72,"max":[41],"min":[0],"type":"SCALAR"},{"bufferView":1,"byteOffset":144936,"componentType":5126,"count":240,"max":[0.49514999985694885,-0.6574400067329407,0.05471999943256378],"min":[0.4674699902534485,-0.6839900016784668,0.02703000046312809],"type":"VEC3"},{"bufferView":1,"byteOffset":147816,"componentType":5126,"count":240,"max":[0.9512808918952942,0.9917317628860474,0.9435237050056458],"min":[-0.9512808918952942,-0.9917317628860474,-0.9435237050056458],"type":"VEC3"},{"bufferView":0,"byteOffset":27024,"componentType":5125,"count":240,"max":[239],"min":[0],"type":"SCALAR"},{"bufferView":1,"byteOffset":150696,"componentType":5126,"count":42,"max":[0.48688000440597534,-0.6662999987602234,0.04016999900341034],"min":[0.4772599935531616,-0.6760299801826477,0.0007300000288523734],"type":"VEC3"},{"bufferView":1,"byteOffset":151200,"componentType":5126,"count":42,"max":[0.9261833429336548,0.9584079384803772,1],"min":[-0.9975026249885559,-0.9865797758102417,-1],"type":"VEC3"},{"bufferView":0,"byteOffset":27984,"componentType":5125,"count":72,"max":[41],"min":[0],"type":"SCALAR"},{"bufferView":1,"byteOffset":151704,"componentType":5126,"count":270,"max":[0.4842900037765503,-0.4920499920845032,0.06187000125646591],"min":[0.4362199902534485,-0.519540011882782,0.03401000052690506],"type":"VEC3"},{"bufferView":1,"byteOffset":154944,"componentType":5126,"count":270,"max":[0.9639458656311035,0.9923743605613708,0.9630807042121887],"min":[-0.9639458656311035,-0.9776946306228638,-0.9961416721343994],"type":"VEC3"},{"bufferView":0,"byteOffset":28272,"componentType":5125,"count":270,"max":[269],"min":[0],"type":"SCALAR"},{"bufferView":1,"byteOffset":158184,"componentType":5126,"count":144,"max":[0.4731700122356415,-0.49689000844955444,0.04933999851346016],"min":[0.4426000118255615,-0.5089600086212158,-0.0012199999764561653],"type":"VEC3"},{"bufferView":1,"byteOffset":159912,"componentType":5126,"count":144,"max":[0.9552341103553772,0.989020586013794,1],"min":[-0.9890008568763733,-0.9971184730529785,-1],"type":"VEC3"},{"bufferView":0,"byteOffset":29352,"componentType":5125,"count":216,"max":[143],"min":[0],"type":"SCALAR"},{"bufferView":1,"byteOffset":161640,"componentType":5126,"count":270,"max":[0.4752799868583679,-0.15330000221729279,0.06187000125646591],"min":[0.4332199990749359,-0.19267000257968903,0.03401000052690506],"type":"VEC3"},{"bufferView":1,"byteOffset":164880,"componentType":5126,"count":270,"max":[0.9836985468864441,0.9453164935112,0.963080108165741],"min":[-0.9810706973075867,-0.9716562032699585,-0.9961420297622681],"type":"VEC3"},{"bufferView":0,"byteOffset":30216,"componentType":5125,"count":270,"max":[269],"min":[0],"type":"SCALAR"},{"bufferView":1,"byteOffset":168120,"componentType":5126,"count":143,"max":[0.4641900062561035,-0.16437000036239624,0.04933999851346016],"min":[0.4391399919986725,-0.1859000027179718,-0.0012199999764561653],"type":"VEC3"},{"bufferView":1,"byteOffset":169836,"componentType":5126,"count":143,"max":[0.9749282598495483,0.9261072874069214,1],"min":[-0.9749282598495483,-1,-1],"type":"VEC3"},{"bufferView":0,"byteOffset":31296,"componentType":5125,"count":216,"max":[142],"min":[0],"type":"SCALAR"},{"bufferView":1,"byteOffset":171552,"componentType":5126,"count":720,"max":[-1.3252999782562256,-0.5416100025177002,0.7174800038337708],"min":[-1.5616799592971802,-0.7877399921417236,0.5478100180625916],"type":"VEC3"},{"bufferView":1,"byteOffset":180192,"componentType":5126,"count":720,"max":[0.9836063385009766,0.9814065098762512,0.9813384413719177],"min":[-0.9836063385009766,-0.9814065098762512,-0.9813384413719177],"type":"VEC3"},{"bufferView":0,"byteOffset":32160,"componentType":5125,"count":720,"max":[719],"min":[0],"type":"SCALAR"},{"bufferView":1,"byteOffset":188832,"componentType":5126,"count":720,"max":[-1.6202800273895264,-0.715910017490387,0.5101799964904785],"min":[-1.7493699789047241,-0.8462100028991699,0.41903001070022583],"type":"VEC3"},{"bufferView":1,"byteOffset":197472,"componentType":5126,"count":720,"max":[0.9883801341056824,0.9791089296340942,0.9813387989997864],"min":[-0.9883801341056824,-0.9791089296340942,-0.9813387989997864],"type":"VEC3"},{"bufferView":0,"byteOffset":35040,"componentType":5125,"count":720,"max":[719],"min":[0],"type":"SCALAR"}],"asset":{"extras":{"author":"HomoMilch (https://sketchfab.com/homomilk)","license":"CC-BY-4.0 (http://creativecommons.org/licenses/by/4.0/)","source":"https://sketchfab.com/models/3c6a3e8c4d0a4c4aaa5dfbbd91107aa4","title":"Low Poly Mountain scene"},"generator":"Sketchfab-3.18.2","version":"2.0"},"bufferViews":[{"buffer":0,"byteLength":37920,"byteOffset":0,"name":"floatBufferViews","target":34963},{"buffer":0,"byteLength":206112,"byteOffset":37920,"byteStride":12,"name":"floatBufferViews","target":34962}],"buffers":[{"byteLength":244032,"uri":"data:application/octet-stream;base64,"}],"materials":[{"doubleSided":true,"emissiveFactor":[0,0,0],"name":"Material.001","pbrMetallicRoughness":{"baseColorFactor":[0.09935047179783825,0.23655376783873727,0.00878203373063275,1],"metallicFactor":0,"roughnessFactor":0.6}},{"doubleSided":true,"emissiveFactor":[0,0,0],"name":"Material.002","pbrMetallicRoughness":{"baseColorFactor":[0.061264027071302386,0.01762736018220698,0.002936931723686859,1],"metallicFactor":0,"roughnessFactor":0.6}},{"doubleSided":true,"emissiveFactor":[0,0,0],"name":"Material.003","pbrMetallicRoughness":{"baseColorFactor":[0.6400000190400001,0.6400000190400001,0.6400000190400001,1],"metallicFactor":0,"roughnessFactor":0.6}},{"doubleSided":true,"emissiveFactor":[0,0,0],"name":"Material.022","pbrMetallicRoughness":{"baseColorFactor":[0.8000000119,0.8000000119,0.8000000119,1],"metallicFactor":0,"roughnessFactor":0.6}},{"doubleSided":true,"emissiveFactor":[0,0,0],"name":"Material.004","pbrMetallicRoughness":{"baseColorFactor":[0.02559713166075733,0.09896823907215253,0.005279854798537839,1],"metallicFactor":0,"roughnessFactor":0.6}},{"doubleSided":true,"emissiveFactor":[0,0,0],"name":"Material.008","pbrMetallicRoughness":{"baseColorFactor":[0.07267043700097274,0.03336358713628335,0.0049614344738013365,1],"metallicFactor":0,"roughnessFactor":0.6}},{"doubleSided":true,"emissiveFactor":[0,0,0],"name":"Material.010","pbrMetallicRoughness":{"baseColorFactor":[0.02559713166075733,0.09896823907215253,0.005279854798537839,1],"metallicFactor":0,"roughnessFactor":0.6}},{"doubleSided":true,"emissiveFactor":[0,0,0],"name":"Material.011","pbrMetallicRoughness":{"baseColorFactor":[0.07267043700097274,0.03336358713628335,0.0049614344738013365,1],"metallicFactor":0,"roughnessFactor":0.6}},{"doubleSided":true,"emissiveFactor":[0,0,0],"name":"Material.012","pbrMetallicRoughness":{"baseColorFactor":[0.02559713166075733,0.09896823907215253,0.005279854798537839,1],"metallicFactor":0,"roughnessFactor":0.6}},{"doubleSided":true,"emissiveFactor":[0,0,0],"name":"Material.013","pbrMetallicRoughness":{"baseColorFactor":[0.07267043700097274,0.03336358713628335,0.0049614344738013365,1],"metallicFactor":0,"roughnessFactor":0.6}},{"doubleSided":true,"emissiveFactor":[0,0,0],"name":"Material.014","pbrMetallicRoughness":{"baseColorFactor":[0.02559713166075733,0.09896823907215253,0.005279854798537839,1],"metallicFactor":0,"roughnessFactor":0.6}},{"doubleSided":true,"emissiveFactor":[0,0,0],"name":"Material.015","pbrMetallicRoughness":{"baseColorFactor":[0.07267043700097274,0.03336358713628335,0.0049614344738013365,1],"metallicFactor":0,"roughnessFactor":0.6}},{"doubleSided":true,"emissiveFactor":[0,0,0],"name":"Material.016","pbrMetallicRoughness":{"baseColorFactor":[0.02559713166075733,0.09896823907215253,0.005279854798537839,1],"metallicFactor":0,"roughnessFactor":0.6}},{"doubleSided":true,"emissiveFactor":[0,0,0],"name":"Material.017","pbrMetallicRoughness":{"baseColorFactor":[0.07267043700097274,0.03336358713628335,0.0049614344738013365,1],"metallicFactor":0,"roughnessFactor":0.6}},{"doubleSided":true,"emissiveFactor":[0,0,0],"name":"Material.018","pbrMetallicRoughness":{"baseColorFactor":[0.02559713166075733,0.09896823907215253,0.005279854798537839,1],"metallicFactor":0,"roughnessFactor":0.6}},{"doubleSided":true,"emissiveFactor":[0,0,0],"name":"Material.019","pbrMetallicRoughness":{"baseColorFactor":[0.07267043700097274,0.03336358713628335,0.0049614344738013365,1],"metallicFactor":0,"roughnessFactor":0.6}},{"doubleSided":true,"emissiveFactor":[0,0,0],"name":"Material.020","pbrMetallicRoughness":{"baseColorFactor":[0.02559713166075733,0.09896823907215253,0.005279854798537839,1],"metallicFactor":0,"roughnessFactor":0.6}},{"doubleSided":true,"emissiveFactor":[0,0,0],"name":"Material.021","pbrMetallicRoughness":{"baseColorFactor":[0.07267043700097274,0.03336358713628335,0.0049614344738013365,1],"metallicFactor":0,"roughnessFactor":0.6}},{"doubleSided":true,"emissiveFactor":[0,0,0],"name":"Material.000","pbrMetallicRoughness":{"baseColorFactor":[0.16633315335420562,0.16633315335420562,0.16633315335420562,1],"metallicFactor":0,"roughnessFactor":0.6}},{"doubleSided":true,"emissiveFactor":[0,0,0],"name":"Material.005","pbrMetallicRoughness":{"baseColorFactor":[0.12186018413267022,0.12186018413267022,0.12186018413267022,1],"metallicFactor":0,"roughnessFactor":0.6}}],"meshes":[{"name":"Plane","primitives":[{"attributes":{"NORMAL":1,"POSITION":0},"indices":2,"material":0,"mode":4}]},{"name":"Plane","primitives":[{"attributes":{"NORMAL":4,"POSITION":3},"indices":5,"material":1,"mode":4}]},{"name":"Plane","primitives":[{"attributes":{"NORMAL":7,"POSITION":6},"indices":8,"material":2,"mode":4}]},{"name":"Plane","primitives":[{"attributes":{"NORMAL":10,"POSITION":9},"indices":11,"material":3,"mode":4}]},{"name":"Plane","primitives":[{"attributes":{"NORMAL":13,"POSITION":12},"indices":14,"material":4,"mode":4}]},{"name":"Plane","primitives":[{"attributes":{"NORMAL":16,"POSITION":15},"indices":17,"material":5,"mode":4}]},{"name":"Plane","primitives":[{"attributes":{"NORMAL":19,"POSITION":18},"indices":20,"material":6,"mode":4}]},{"name":"Plane","primitives":[{"attributes":{"NORMAL":22,"POSITION":21},"indices":23,"material":7,"mode":4}]},{"name":"Plane","primitives":[{"attributes":{"NORMAL":25,"POSITION":24},"indices":26,"material":8,"mode":4}]},{"name":"Plane","primitives":[{"attributes":{"NORMAL":28,"POSITION":27},"indices":29,"material":9,"mode":4}]},{"name":"Plane","primitives":[{"attributes":{"NORMAL":31,"POSITION":30},"indices":32,"material":10,"mode":4}]},{"name":"Plane","primitives":[{"attributes":{"NORMAL":34,"POSITION":33},"indices":35,"material":11,"mode":4}]},{"name":"Plane","primitives":[{"attributes":{"NORMAL":37,"POSITION":36},"indices":38,"material":12,"mode":4}]},{"name":"Plane","primitives":[{"attributes":{"NORMAL":40,"POSITION":39},"indices":41,"material":13,"mode":4}]},{"name":"Plane","primitives":[{"attributes":{"NORMAL":43,"POSITION":42},"indices":44,"material":14,"mode":4}]},{"name":"Plane","primitives":[{"attributes":{"NORMAL":46,"POSITION":45},"indices":47,"material":15,"mode":4}]},{"name":"Plane","primitives":[{"attributes":{"NORMAL":49,"POSITION":48},"indices":50,"material":16,"mode":4}]},{"name":"Plane","primitives":[{"attributes":{"NORMAL":52,"POSITION":51},"indices":53,"material":17,"mode":4}]},{"name":"Plane","primitives":[{"attributes":{"NORMAL":55,"POSITION":54},"indices":56,"material":18,"mode":4}]},{"name":"Plane","primitives":[{"attributes":{"NORMAL":58,"POSITION":57},"indices":59,"material":19,"mode":4}]}],"nodes":[{"children":[1],"name":"RootNode (gltf orientation matrix)","rotation":[-0.7071067811865475,0,0,0.7071067811865476]},{"children":[2],"name":"RootNode (model correction matrix)"},{"children":[3,24],"name":"Root"},{"children":[4,5,6,7,8,9,10,11,12,13,14,15,16,17,18,19,20,21,22,23],"matrix":[7.0182,0,0,0,0,7.0182,0,0,0,0,7.0182,0,0,0,0,1],"name":"Plane"},{"mesh":0,"name":"Plane"},{"mesh":1,"name":"Plane"},{"mesh":2,"name":"Plane"},{"mesh":3,"name":"Plane"},{"mesh":4,"name":"Plane"},{"mesh":5,"name":"Plane"},{"mesh":6,"name":"Plane"},{"mesh":7,"name":"Plane"},{"mesh":8,"name":"Plane"},{"mesh":9,"name":"Plane"},{"mesh":10,"name":"Plane"},{"mesh":11,"name":"Plane"},{"mesh":12,"name":"Plane"},{"mesh":13,"name":"Plane"},{"mesh":14,"name":"Plane"},{"mesh":15,"name":"Plane"},{"mesh":16,"name":"Plane"},{"mesh":17,"name":"Plane"},{"mesh":18,"name":"Plane"},{"mesh":19,"name":"Plane"},{"children":[25],"matrix":[0.44717000000000007,0.22253000000000003,-0.8663200000000001,0,-0.44553000000000004,0.8952700000000001,0,0,0.77559,0.3859700000000001,0.49949000000000005,0,8.36834,4.01878,5.86586,1],"name":"Sun"},{"name":"Sun"}],"scene":0,"scenes":[{"name":"OSG_Scene","nodes":[0]}]}