{"accessors":[{"bufferView":1,"componentType":5126,"count":568,"max":[8,0,0.5],"min":[-8,-16,-0.5],"type":"VEC3"},{"bufferView":1,"byteOffset":6816,"componentType":5126,"count":568,"max":[1,1,1],"min":[-1,-1,-1],"type":"VEC3"},{"bufferView":0,"componentType":5125,"count":1224,"max":[567],"min":[0],"type":"SCALAR"},{"bufferView":1,"byteOffset":13632,"componentType":5126,"count":370,"max":[7,-1,0.5],"min":[-7,-15,-0.5],"type":"VEC3"},{"bufferView":1,"byteOffset":18072,"componentType":5126,"count":370,"max":[0,0,1],"min":[0,0,-1],"type":"VEC3"},{"bufferView":0,"byteOffset":4896,"componentType":5125,"count":1596,"max":[369],"min":[0],"type":"SCALAR"},{"bufferView":1,"byteOffset":22512,"componentType":5126,"count":24,"max":[3,-5,0.5],"min":[0,-7,-0.5],"type":"VEC3"},{"bufferView":1,"byteOffset":22800,"componentType":5126,"count":24,"max":[0,0,1],"min":[0,0,-1],"type":"VEC3"},{"bufferView":0,"byteOffset":11280,"componentType":5125,"count":60,"max":[23],"min":[0],"type":"SCALAR"}],"asset":{"extras":{"author":"Alex_F (https://sketchfab.com/Alex_F)","license":"CC-BY-4.0 (http://creativecommons.org/licenses/by/4.0/)","source":"https://sketchfab.com/models/04b0836fde2744498daf8a68185eab90","title":"Pixel Art (Smiley Face)"},"generator":"Sketchfab-3.18.6","version":"2.0"},"bufferViews":[{"buffer":0,"byteLength":11520,"byteOffset":0,"name":"floatBufferViews","target":34963},{"buffer":0,"byteLength":23088,"byteOffset":11520,"byteStride":12,"name":"floatBufferViews","target":34962}],"buffers":[{"byteLength":34608,"uri":"data:application/octet-stream;base64,"}],"materials":[{"doubleSided":true,"emissiveFactor":[0,0,0],"name":"material","pbrMetallicRoughness":{"baseColorFactor":[0,0,0,1],"metallicFactor":0,"roughnessFactor":0.6}},{"doubleSided":true,"emissiveFactor":[0,0,0],"name":"material_2","pbrMetallicRoughness":{"baseColorFactor":[1,1,0,1],"metallicFactor":0,"roughnessFactor":0.6}},{"doubleSided":true,"emissiveFactor":[0,0,0],"name":"material_3","pbrMetallicRoughness":{"baseColorFactor":[0.933333,0,0,1],"metallicFactor":0,"roughnessFactor":0.6}}],"meshes":[{"primitives":[{"attributes":{"NORMAL":1,"POSITION":0},"indices":2,"material":0,"mode":4}]},{"primitives":[{"attributes":{"NORMAL":4,"POSITION":3},"indices":5,"material":1,"mode":4}]},{"primitives":[{"attributes":{"NORMAL":7,"POSITION":6},"indices":8,"material":2,"mode":4}]}],"nodes":[{"children":[1],"name":"RootNode (gltf orientation matrix)","rotation":[-0.7071067811865475,0,0,0.7071067811865476]},{"children":[2],"matrix":[1,0,0,0,0,0.026195239275693893,-0.9996568560600281,0,0,0.9996568560600281,0.026195239275693893,0,0,-7.791954040527344,-7.9988203048706055,1],"name":"RootNode (model correction matrix)"},{"children":[3,4,5],"name":"Smiley Face.obj.cleaner.gles"},{"mesh":0,"name":""},{"mesh":1,"name":""},{"mesh":2,"name":""}],"scene":0,"scenes":[{"name":"OSG_Scene","nodes":[0]}]}